# xmcd
#
# Track frame offsets: 
#        150
#        16440
#        32611
#        50725
#        61471
#        71589
#        87789
#        102541
#        116766
#        133595
#        151001
#        167648
#
# Disc length: 2443 seconds
#
# Revision: 0
# Processed by: cddbd v1.5.2PL0 Copyright (c) Steve Scherf et al.
# Submitted via: ExactAudioCopy v1.0b3
#
DISCID=9e09890c
DTITLE=薰妮 - 薰妮珍藏版 II 霧裡玫瑰
DYEAR=1900
DGENRE=
TTITLE0=霧裡玫瑰
TTITLE1=浮雲倚山崗
TTITLE2=小樓聽雨
TTITLE3=化妝名流
TTITLE4=情懷易改變
TTITLE5=你像我一樣
TTITLE6=到那風起處
TTITLE7=原野心聲
TTITLE8=知我是誰?
TTITLE9=漁港的海風
TTITLE10=幸福舞台劇
TTITLE11=學爬爬
EXTD=
EXTT0=
EXTT1=
EXTT2=
EXTT3=
EXTT4=
EXTT5=
EXTT6=
EXTT7=
EXTT8=
EXTT9=
EXTT10=
EXTT11=
PLAYORDER=
